<?xml version="1.0" encoding="iso-8859-1"?>
<!-- Uploaded to: SVG Repo, www.svgrepo.com, Generator: SVG Repo Mixer Tools -->
<svg fill="#000000" height="800px" width="800px" version="1.1" id="Layer_1" xmlns="http://www.w3.org/2000/svg" xmlns:xlink="http://www.w3.org/1999/xlink" 
	 viewBox="0 0 416.822 416.822" xml:space="preserve">
<g>
	<g>
		<g>
			<path d="M391.814,272.828H324.27c-15.529-35.014-42.951-63.229-77.706-79.781c-2.863-1.364-6.276-0.779-8.521,1.461
				c-18.071,18.023-38.921,27.55-60.295,27.55c-21.377,0-42.223-9.526-60.282-27.549c-2.246-2.241-5.657-2.827-8.522-1.463
				c-26.962,12.837-49.779,32.917-65.987,58.067c-16.647,25.835-25.447,55.81-25.447,86.684v0.13c0,2.116,0.894,4.133,2.461,5.555
				c43.268,39.249,99.301,60.865,157.778,60.865c5.688,0,11.434-0.206,17.075-0.611c4.131-0.297,7.239-3.887,6.942-8.018
				c-0.296-4.131-3.867-7.234-8.019-6.943c-5.285,0.38-10.668,0.572-15.999,0.572c-53.628,0-105.055-19.414-145.204-54.745
				c0.582-26.856,8.512-52.848,23.021-75.363c13.764-21.359,32.783-38.684,55.222-50.356c20.046,18.456,43.095,28.175,66.961,28.175
				c23.862,0,46.915-9.721,66.971-28.176c27.331,14.209,49.279,36.547,62.973,63.946h-14.536l-30.753-36.191
				c-2.036-2.396-5.351-3.269-8.302-2.183c-2.951,1.084-4.913,3.895-4.913,7.04v31.334h-14.867c-4.143,0-7.5,3.358-7.5,7.5v128.994
				c0,4.142,3.357,7.5,7.5,7.5h157.492c4.143,0,7.5-3.358,7.5-7.5V280.328C399.314,276.186,395.957,272.828,391.814,272.828z
				 M384.314,401.821H241.822V287.828h14.867c4.143,0,7.5-3.358,7.5-7.5v-18.426l19.784,23.282c1.425,1.677,3.515,2.644,5.715,2.644
				h94.626V401.821z"/>
			<path d="M258.32,326.989c0,4.142,3.357,7.5,7.5,7.5h94.496c4.143,0,7.5-3.358,7.5-7.5c0-4.142-3.357-7.5-7.5-7.5H265.82
				C261.677,319.489,258.32,322.847,258.32,326.989z"/>
			<path d="M360.316,355.487H265.82c-4.143,0-7.5,3.358-7.5,7.5c0,4.142,3.357,7.5,7.5,7.5h94.496c4.143,0,7.5-3.358,7.5-7.5
				C367.816,358.845,364.459,355.487,360.316,355.487z"/>
			<path d="M177.756,209.972c23.96,0,47.357-14.538,65.881-40.936c16.348-23.296,26.107-52.099,26.107-77.048
				C269.745,41.266,228.479,0,177.756,0c-50.722,0-91.987,41.266-91.987,91.988c0,24.949,9.76,53.752,26.106,77.048
				C130.399,195.434,153.796,209.972,177.756,209.972z M177.756,15c42.451,0,76.988,34.537,76.988,76.988
				c0,21.654-8.961,47.876-23.386,68.432c-15.408,21.958-34.946,34.552-53.603,34.552s-38.193-12.594-53.603-34.552
				c-14.424-20.556-23.385-46.777-23.385-68.432C100.769,49.537,135.305,15,177.756,15z"/>
			<path d="M218.594,387.85C219.014,388.129,218.195,387.58,218.594,387.85L218.594,387.85z"/>
			<path d="M218.594,387.85c-2.827-1.911-6.757-1.576-9.25,0.735c-2.155,1.998-2.957,5.16-1.999,7.939
				c1.031,2.994,3.917,5.06,7.089,5.066c3.171,0.007,6.061-2.079,7.089-5.066C222.618,393.346,221.392,389.714,218.594,387.85z"/>
		</g>
	</g>
</g>
</svg>